<?xml version="1.0" ?><svg style="enable-background:new 0 0 16 16;" version="1.1" viewBox="0 0 16 16" xml:space="preserve" xmlns="http://www.w3.org/2000/svg" xmlns:xlink="http://www.w3.org/1999/xlink"><g id="Guide"/><g id="Layer_2"><path d="M13.62,7.82c0.34-0.33,0.46-0.82,0.31-1.27c-0.15-0.45-0.53-0.77-1-0.84l-2.52-0.37c-0.08-0.01-0.14-0.06-0.18-0.13   L9.11,2.92C8.9,2.5,8.47,2.23,8,2.23S7.1,2.5,6.89,2.92L5.76,5.21c-0.04,0.07-0.1,0.12-0.18,0.13L3.06,5.71   c-0.47,0.07-0.85,0.39-1,0.84C1.91,7,2.03,7.49,2.38,7.82L4.2,9.59c0.06,0.06,0.08,0.13,0.07,0.21l-0.43,2.51   c-0.08,0.47,0.11,0.93,0.49,1.21c0.38,0.28,0.88,0.32,1.3,0.09l2.26-1.19c0.07-0.04,0.15-0.04,0.22,0l2.25,1.19   c0.18,0.1,0.38,0.14,0.58,0.14c0.26,0,0.51-0.08,0.73-0.24c0.38-0.28,0.57-0.74,0.49-1.21l-0.43-2.51   c-0.01-0.08,0.01-0.16,0.07-0.21L13.62,7.82z M11.1,8.88c-0.29,0.29-0.42,0.69-0.36,1.1l0.43,2.51c0.02,0.13-0.06,0.21-0.09,0.23   c-0.04,0.03-0.13,0.08-0.25,0.02l-2.25-1.19C8.4,11.46,8.2,11.41,8,11.41s-0.4,0.05-0.58,0.14l-2.25,1.19   c-0.12,0.07-0.21,0.01-0.25-0.02c-0.04-0.03-0.12-0.1-0.09-0.23l0.43-2.51c0.07-0.4-0.06-0.81-0.36-1.1L3.07,7.1   C2.98,7.01,3,6.9,3.01,6.86c0.01-0.04,0.06-0.14,0.19-0.16l2.52-0.37c0.4-0.06,0.75-0.31,0.93-0.68l1.13-2.28   C7.85,3.25,7.96,3.23,8,3.23s0.15,0.01,0.21,0.13l1.13,2.28c0.18,0.37,0.53,0.62,0.93,0.68l2.52,0.37   c0.13,0.02,0.18,0.12,0.19,0.16C13,6.9,13.02,7.01,12.93,7.1L11.1,8.88z"/></g></svg>